<svg width="281" height="29" viewBox="0 0 281 29" fill="none" xmlns="http://www.w3.org/2000/svg">
<path d="M5.47526 1H32.3268C33.5137 1 34.652 1.4715 35.4913 2.31077C36.3306 3.15005 36.8021 4.28835 36.8021 5.47526V25.6139C36.8021 26.2074 36.5663 26.7765 36.1467 27.1962C35.7271 27.6158 35.1579 27.8516 34.5645 27.8516H30.0892C29.4957 27.8516 28.9266 27.6158 28.507 27.1962C28.0873 26.7765 27.8516 26.2074 27.8516 25.6139V21.1387C27.8516 18.7648 26.9086 16.4882 25.23 14.8097C23.5515 13.1312 21.2749 12.1882 18.901 12.1882C16.5272 12.1882 14.2506 13.1312 12.5721 14.8097C10.8935 16.4882 9.95052 18.7648 9.95052 21.1387V25.6139C9.95052 26.2074 9.71477 26.7765 9.29514 27.1962C8.8755 27.6158 8.30635 27.8516 7.71289 27.8516H3.23763C2.64417 27.8516 2.07502 27.6158 1.65539 27.1962C1.23575 26.7765 1 26.2074 1 25.6139V5.47526C1 4.28835 1.4715 3.15005 2.31077 2.31077C3.15005 1.4715 4.28835 1 5.47526 1" stroke="#DAD9D6" stroke-width="2" stroke-linecap="round" stroke-linejoin="round"/>
<path d="M23.3763 0.999985H50.2279C51.4148 0.999985 52.5531 1.47148 53.3924 2.31076C54.2317 3.15003 54.7032 4.28833 54.7032 5.47525V25.6139C54.7032 26.2074 54.4674 26.7765 54.0478 27.1962C53.6281 27.6158 53.059 27.8516 52.4655 27.8516H47.9903C47.3968 27.8516 46.8277 27.6158 46.408 27.1962C45.9884 26.7765 45.7526 26.2074 45.7526 25.6139V21.1387C45.7526 18.7648 44.8096 16.4882 43.1311 14.8097C41.4525 13.1311 39.1759 12.1881 36.8021 12.1881C34.4283 12.1881 32.1517 13.1311 30.4731 14.8097C28.7946 16.4882 27.8516 18.7648 27.8516 21.1387V25.6139C27.8516 26.2074 27.6158 26.7765 27.1962 27.1962C26.7766 27.6158 26.2074 27.8516 25.614 27.8516H21.1387C20.5452 27.8516 19.9761 27.6158 19.5564 27.1962C19.1368 26.7765 18.9011 26.2074 18.9011 25.6139V5.47525C18.9011 4.28833 19.3726 3.15003 20.2118 2.31076C21.0511 1.47148 22.1894 0.999985 23.3763 0.999985" stroke="#DAD9D6" stroke-width="2" stroke-linecap="round" stroke-linejoin="round"/>
<path d="M90.5863 4.82635L81.8864 23.3808L73.2133 4.82635H72.7031V24.0252H73.2133V6.11522L81.591 24.0252H82.1549L90.5863 6.11522V24.0252H91.0964V4.82635H90.5863Z" fill="#DAD9D6"/>
<path d="M103.372 5.33653C108.366 5.33653 112.448 9.41796 112.448 14.4392C112.448 19.4336 108.366 23.515 103.372 23.515C98.3506 23.515 94.296 19.4336 94.296 14.4392C94.296 9.41796 98.3506 5.33653 103.372 5.33653ZM103.372 24.0252C108.662 24.0252 112.958 19.729 112.958 14.4392C112.958 9.1226 108.662 4.82635 103.372 4.82635C98.0821 4.82635 93.7858 9.1226 93.7858 14.4392C93.7858 19.729 98.0821 24.0252 103.372 24.0252Z" fill="#DAD9D6"/>
<path d="M126.155 4.82635H112.246V5.33653H118.932V24.0252H119.442V5.33653H126.155V4.82635Z" fill="#DAD9D6"/>
<path d="M136.498 5.33653V4.82635H128.845V5.33653H132.416V23.515H128.845V24.0252H136.498V23.515H132.926V5.33653H136.498Z" fill="#DAD9D6"/>
<path d="M146.638 5.33653C151.633 5.33653 155.714 9.41796 155.714 14.4392C155.714 19.4336 151.633 23.515 146.638 23.515C141.617 23.515 137.563 19.4336 137.563 14.4392C137.563 9.41796 141.617 5.33653 146.638 5.33653ZM146.638 24.0252C151.928 24.0252 156.225 19.729 156.225 14.4392C156.225 9.1226 151.928 4.82635 146.638 4.82635C141.349 4.82635 137.052 9.1226 137.052 14.4392C137.052 19.729 141.349 24.0252 146.638 24.0252Z" fill="#DAD9D6"/>
<path d="M173.744 4.82635V23.1391L159.432 4.82635H158.922V24.0252H159.432V5.7393L173.744 24.0252H174.281V4.82635H173.744Z" fill="#DAD9D6"/>
<path d="M196.774 14.0901C197.875 13.0966 198.547 11.6735 198.547 10.1161C198.547 7.21614 196.184 4.82635 193.257 4.82635H186.168V23.2465L186.114 24.0252H194.223C197.123 24.0252 199.513 21.6623 199.513 18.7355C199.513 16.7484 198.412 15.0031 196.774 14.0901ZM194.223 22.0114H188.155V15.4327H194.223C196.023 15.4327 197.499 16.9096 197.499 18.7355C197.499 20.5345 196.023 22.0114 194.223 22.0114ZM193.257 13.4188H188.155V6.84021H193.257C195.083 6.84021 196.56 8.31705 196.56 10.1161C196.56 11.942 195.083 13.4188 193.257 13.4188Z" fill="#DAD9D6"/>
<path d="M209.263 15.4327C212.163 15.4327 214.526 13.0429 214.526 10.1161C214.526 7.21614 212.163 4.82635 209.263 4.82635H201.664V24.0252H203.678V15.8892L212.807 24.0252H215.788L206.095 15.4327H209.263ZM203.678 6.84021H209.263C211.062 6.84021 212.539 8.31705 212.539 10.1161C212.539 11.942 211.062 13.4188 209.263 13.4188H203.678V6.84021Z" fill="#DAD9D6"/>
<path d="M226.514 6.84021V4.82635H217.948V6.84021H221.224V22.0382H217.948V24.0252H226.514V22.0382H223.238V6.84021H226.514Z" fill="#DAD9D6"/>
<path d="M234.795 4.82635H228.673V24.0252H234.795C240.085 24.0252 244.381 19.729 244.381 14.4124C244.381 9.1226 240.085 4.82635 234.795 4.82635ZM234.795 22.0382H230.687V6.81336H234.795C238.984 6.81336 242.394 10.2235 242.394 14.4124C242.394 18.6281 238.984 22.0382 234.795 22.0382Z" fill="#DAD9D6"/>
<path d="M255.875 17.2855H263.205C262.051 20.1586 259.285 22.0651 256.143 22.0651C251.927 22.0651 248.517 18.6549 248.517 14.4392C248.517 10.2504 251.927 6.81336 256.143 6.81336C259.473 6.81336 262.4 9.01519 263.393 12.1568H265.461C264.413 7.88743 260.574 4.82635 256.143 4.82635C250.827 4.82635 246.53 9.14945 246.53 14.4392C246.53 19.7558 250.827 24.0252 256.143 24.0252C260.735 24.0252 265.058 20.8836 265.568 16.3188L265.675 15.2716H255.875V17.2855Z" fill="#DAD9D6"/>
<path d="M267.823 24.0252H280.47V22.0114H269.837V15.4327H277.597V13.4188H269.837V6.84021H280.47V4.82635H267.823V24.0252Z" fill="#DAD9D6"/>
</svg>
