<svg width="104" height="52" viewBox="0 0 104 52" fill="none" xmlns="http://www.w3.org/2000/svg">
<path d="M18.7533 0.652692L10.0534 19.2071L1.38038 0.652692H0.870201V19.8516H1.38038V1.94157L9.75807 19.8516H10.322L18.7533 1.94157V19.8516H19.2635V0.652692H18.7533ZM31.5389 1.16287C36.5333 1.16287 40.6147 5.24431 40.6147 10.2656C40.6147 15.2599 36.5333 19.3414 31.5389 19.3414C26.5176 19.3414 22.4631 15.2599 22.4631 10.2656C22.4631 5.24431 26.5176 1.16287 31.5389 1.16287ZM31.5389 19.8516C36.8286 19.8516 41.1249 15.5553 41.1249 10.2656C41.1249 4.94894 36.8286 0.652692 31.5389 0.652692C26.2491 0.652692 21.9529 4.94894 21.9529 10.2656C21.9529 15.5553 26.2491 19.8516 31.5389 19.8516ZM54.3224 0.652692H40.4133V1.16287H47.0994V19.8516H47.6096V1.16287H54.3224V0.652692ZM64.6647 1.16287V0.652692H57.012V1.16287H60.5833V19.3414H57.012V19.8516H64.6647V19.3414H61.0934V1.16287H64.6647ZM74.8056 1.16287C79.8 1.16287 83.8814 5.24431 83.8814 10.2656C83.8814 15.2599 79.8 19.3414 74.8056 19.3414C69.7843 19.3414 65.7297 15.2599 65.7297 10.2656C65.7297 5.24431 69.7843 1.16287 74.8056 1.16287ZM74.8056 19.8516C80.0953 19.8516 84.3916 15.5553 84.3916 10.2656C84.3916 4.94894 80.0953 0.652692 74.8056 0.652692C69.5158 0.652692 65.2196 4.94894 65.2196 10.2656C65.2196 15.5553 69.5158 19.8516 74.8056 19.8516ZM101.911 0.652692V18.9655L87.5991 0.652692H87.0889V19.8516H87.5991V1.56564L101.911 19.8516H102.448V0.652692H101.911ZM11.0478 41.9165C12.1487 40.923 12.82 39.4998 12.82 37.9425C12.82 35.0425 10.457 32.6527 7.53023 32.6527H0.441414V51.0729L0.387711 51.8516H8.49688C11.3969 51.8516 13.7866 49.4886 13.7866 46.5618C13.7866 44.5748 12.6857 42.8294 11.0478 41.9165ZM8.49688 49.8377H2.42843V43.2591H8.49688C10.2959 43.2591 11.7728 44.7359 11.7728 46.5618C11.7728 48.3609 10.2959 49.8377 8.49688 49.8377ZM7.53023 41.2452H2.42843V34.6666H7.53023C9.35613 34.6666 10.833 36.1434 10.833 37.9425C10.833 39.7684 9.35613 41.2452 7.53023 41.2452ZM25.2818 43.2591C28.1818 43.2591 30.5447 40.8693 30.5447 37.9425C30.5447 35.0425 28.1818 32.6527 25.2818 32.6527H17.6828V51.8516H19.6967V43.7155L28.8262 51.8516H31.8068L22.1134 43.2591H25.2818ZM19.6967 34.6666H25.2818C27.0809 34.6666 28.5577 36.1434 28.5577 37.9425C28.5577 39.7684 27.0809 41.2452 25.2818 41.2452H19.6967V34.6666ZM44.2779 34.6666V32.6527H35.7122V34.6666H38.9881V49.8645H35.7122V51.8516H44.2779V49.8645H41.002V34.6666H44.2779ZM54.3046 32.6527H48.1824V51.8516H54.3046C59.5944 51.8516 63.8906 47.5553 63.8906 42.2387C63.8906 36.9489 59.5944 32.6527 54.3046 32.6527ZM54.3046 49.8645H50.1963V34.6397H54.3046C58.4935 34.6397 61.9036 38.0499 61.9036 42.2387C61.9036 46.4544 58.4935 49.8645 54.3046 49.8645ZM77.1295 45.1118H84.46C83.3053 47.9849 80.5396 49.8914 77.398 49.8914C73.1823 49.8914 69.7722 46.4812 69.7722 42.2656C69.7722 38.0767 73.1823 34.6397 77.398 34.6397C80.7276 34.6397 83.6544 36.8415 84.6479 39.9832H86.7155C85.6683 35.7138 81.8285 32.6527 77.398 32.6527C72.0814 32.6527 67.7851 36.9758 67.7851 42.2656C67.7851 47.5822 72.0814 51.8516 77.398 51.8516C81.9896 51.8516 86.3127 48.7099 86.8229 44.1452L86.9303 43.098H77.1295V45.1118ZM90.8229 51.8516H103.47V49.8377H92.8368V43.2591H100.597V41.2452H92.8368V34.6666H103.47V32.6527H90.8229V51.8516Z" fill="#DAD9D6"/>
</svg>
