<svg width="56" height="29" viewBox="0 0 56 29" fill="none" xmlns="http://www.w3.org/2000/svg">
<path d="M5.47526 1H32.3268C33.5137 1 34.652 1.4715 35.4913 2.31077C36.3306 3.15005 36.8021 4.28835 36.8021 5.47526V25.6139C36.8021 26.2074 36.5663 26.7765 36.1467 27.1962C35.7271 27.6158 35.1579 27.8516 34.5645 27.8516H30.0892C29.4957 27.8516 28.9266 27.6158 28.507 27.1962C28.0873 26.7765 27.8516 26.2074 27.8516 25.6139V21.1387C27.8516 18.7648 26.9086 16.4882 25.23 14.8097C23.5515 13.1312 21.2749 12.1882 18.901 12.1882C16.5272 12.1882 14.2506 13.1312 12.5721 14.8097C10.8935 16.4882 9.95052 18.7648 9.95052 21.1387V25.6139C9.95052 26.2074 9.71477 26.7765 9.29514 27.1962C8.8755 27.6158 8.30635 27.8516 7.71289 27.8516H3.23763C2.64417 27.8516 2.07502 27.6158 1.65539 27.1962C1.23575 26.7765 1 26.2074 1 25.6139V5.47526C1 4.28835 1.4715 3.15005 2.31077 2.31077C3.15005 1.4715 4.28835 1 5.47526 1" stroke="#DAD9D6" stroke-width="2" stroke-linecap="round" stroke-linejoin="round"/>
<path d="M23.3763 0.999985H50.2279C51.4148 0.999985 52.5531 1.47148 53.3924 2.31076C54.2317 3.15003 54.7032 4.28833 54.7032 5.47525V25.6139C54.7032 26.2074 54.4674 26.7765 54.0478 27.1962C53.6281 27.6158 53.059 27.8516 52.4655 27.8516H47.9903C47.3968 27.8516 46.8277 27.6158 46.408 27.1962C45.9884 26.7765 45.7526 26.2074 45.7526 25.6139V21.1387C45.7526 18.7648 44.8096 16.4882 43.1311 14.8097C41.4525 13.1311 39.1759 12.1881 36.8021 12.1881C34.4283 12.1881 32.1517 13.1311 30.4731 14.8097C28.7946 16.4882 27.8516 18.7648 27.8516 21.1387V25.6139C27.8516 26.2074 27.6158 26.7765 27.1962 27.1962C26.7766 27.6158 26.2074 27.8516 25.614 27.8516H21.1387C20.5452 27.8516 19.9761 27.6158 19.5564 27.1962C19.1368 26.7765 18.9011 26.2074 18.9011 25.6139V5.47525C18.9011 4.28833 19.3726 3.15003 20.2118 2.31076C21.0511 1.47148 22.1894 0.999985 23.3763 0.999985" stroke="#DAD9D6" stroke-width="2" stroke-linecap="round" stroke-linejoin="round"/>
</svg>
